<?xml version="1.0" encoding="utf-8"?>
<!-- Generator: Adobe Illustrator 24.1.2, SVG Export Plug-In . SVG Version: 6.00 Build 0)  -->
<svg version="1.1" id="Layer_1" xmlns="http://www.w3.org/2000/svg" xmlns:xlink="http://www.w3.org/1999/xlink" x="0px" y="0px"
	 viewBox="0 0 325 85" style="enable-background:new 0 0 325 85;" xml:space="preserve">
<style type="text/css">
	.st0{fill:#00B8D3;}
</style>
<g>
	<path id="XMLID_3_" class="st0" d="M16.1,73.2l12.4-17L40,61.4l-8.6,11.7L16.1,73.2L16.1,73.2z M48.4,50l17.2,23.2H50.3l0,0l-17-23
		l-17-23.7h7.4c4.8,0,9.1,2.4,11.5,6.5l5.5,9.3l9.6-15.8h15.3h-0.2L48.4,50z"/>
	<path id="XMLID_6_" class="st0" d="M85.5,25.8c3.3,0,6.5,0.7,9.3,1.9c2.9,1.2,5.5,3.1,7.7,5.3s3.8,4.8,5.3,7.7
		c1.2,2.9,1.9,6,1.9,9.3c0,1.9-0.2,3.6-0.5,5.3v0.2H85.5l-2.9-4.8c-1.2-2.2,0.2-4.8,2.6-4.8h12c-1-2.6-2.4-4.8-4.3-6.5
		s-4.3-2.6-7.2-2.6c-1.7,0-3.3,0.2-4.8,1s-2.9,1.7-3.8,2.6c-1.2,1.2-1.9,2.4-2.6,4.1c-0.7,1.7-1,3.3-1,5.3c0,1.4,0.2,2.9,1,4.3
		c0.5,1.4,1.4,2.9,2.4,4.1c1,1.2,2.4,2.4,3.8,3.1c1.4,0.7,3.1,1.2,5,1.2c1.7,0,3.1-0.2,4.5-0.7s2.6-1.4,4.1-3.1l0,0h0.2l10.8,4.8
		l-0.2,0.2c-3.1,4.3-7.2,7.2-12.7,9.1c-1.2,0.5-2.6,0.7-3.8,0.7c-4.5,0.5-8.6,0-12.4-1.7c-2.9-1.2-5.5-2.9-7.7-5
		c-2.2-2.2-3.8-4.8-5.3-7.7c-1.2-2.9-1.9-6-1.9-9.3s0.7-6.5,1.9-9.3c1.2-2.9,3.1-5.5,5.3-7.7s4.8-3.8,7.7-5.3
		C79,26.3,82.1,25.8,85.5,25.8z"/>
	<path id="XMLID_8_" class="st0" d="M120.6,26.5l12,33.7l-8.1,8.6L112.3,39C110.1,33,114.4,26.5,120.6,26.5L120.6,26.5L120.6,26.5z
		 M146.2,26.5h13.2l-19.1,46.6h-10.8l3.8-10.8L146.2,26.5z"/>
	<path id="XMLID_11_" class="st0" d="M180.7,25.8c3.3,0,6.5,0.7,9.3,1.9s5.5,3.1,7.7,5.3s3.8,4.8,5.3,7.7c1.2,2.9,1.9,6,1.9,9.3
		c0,1.9-0.2,3.6-0.5,5.3v0.2h-23.7l-2.6-4.1c-1.4-2.4,0.2-5.5,2.9-5.5h11.5c-1-2.6-2.4-4.8-4.3-6.5c-1.9-1.7-4.3-2.6-7.2-2.6
		c-1.7,0-3.3,0.2-4.8,1s-2.9,1.7-3.8,2.6c-1.2,1.2-1.9,2.4-2.6,4.1c-0.7,1.7-1,3.3-1,5.3c0,1.4,0.2,2.9,1,4.3
		c0.5,1.4,1.4,2.9,2.4,4.1c1,1.2,2.4,2.4,3.8,3.1c1.4,0.7,3.1,1.2,5,1.2c1.7,0,3.1-0.2,4.5-0.7s2.6-1.4,4.1-3.1l0,0h0.2l10.8,4.8
		l-0.2,0.2c-2.6,3.8-6.2,6.5-10.5,8.4c-2.6,1-5.5,1.7-8.1,1.7c-3.6,0-6.9-0.5-10.3-1.9c-2.9-1.2-5.5-2.9-7.7-5
		c-2.2-2.2-3.8-4.8-5.3-7.7c-1.2-2.9-1.9-6-1.9-9.3s0.7-6.5,1.9-9.3c1.2-2.9,3.1-5.5,5.3-7.7s4.8-3.8,7.7-5.3
		C174,26.3,177.3,25.8,180.7,25.8z"/>
	<path id="XMLID_13_" class="st0" d="M221.8,7.9v65.3h-12.4V7.9H221.8z"/>
	<path id="XMLID_15_" class="st0" d="M239.7,7.9v65.3h-12.4V7.9H239.7z"/>
	<path id="XMLID_17_" class="st0" d="M268.7,25.8c3.3,0,6.5,0.7,9.3,1.9c2.9,1.2,5.5,3.1,7.7,5.3s3.8,4.8,5.3,7.7
		c1.2,2.9,1.9,6,1.9,9.3s-0.7,6.5-1.9,9.3c-1.2,2.9-3.1,5.5-5.3,7.7c-2.2,2.2-4.8,3.8-7.7,5.3c-2.9,1.2-6,1.9-9.3,1.9
		s-6.5-0.7-9.3-1.9c-2.9-1.2-5.5-3.1-7.7-5.3c-2.2-2.2-3.8-4.8-5.3-7.7c-1.2-2.9-1.9-6-1.9-9.3s0.7-6.5,1.9-9.3
		c1.2-2.9,3.1-5.5,5.3-7.7s4.8-3.8,7.7-5.3C262,26.3,265.3,25.8,268.7,25.8z M268.7,62.9c1.7,0,3.1-0.2,4.3-1
		c1.4-0.7,2.6-1.7,3.6-2.9s1.9-2.6,2.4-4.3s1-3.3,1-5.3c0-1.7-0.2-3.3-1-5c-0.5-1.7-1.4-2.9-2.4-4.1c-1-1.2-2.2-2.2-3.6-2.9
		s-2.9-1-4.3-1c-1.7,0-3.1,0.2-4.3,1c-1.4,0.7-2.6,1.7-3.6,2.9s-1.9,2.6-2.4,4.1c-0.5,1.7-1,3.3-1,5c0,1.9,0.2,3.6,1,5.3
		c0.5,1.7,1.4,2.9,2.4,4.3c1,1.2,2.2,2.2,3.6,2.9C265.6,62.4,267,62.9,268.7,62.9z"/>
	<path id="XMLID_20_" class="st0" d="M304.8,59.3c2.2,0,3.8,0.7,5.3,2.2c1.4,1.4,2.2,3.1,2.2,5.3c0,2.2-0.7,3.8-2.2,5.3
		c-1.4,1.4-3.1,2.2-5.3,2.2c-1.9,0-3.6-0.7-5-2.2c-1.4-1.4-2.2-3.1-2.2-5.3c0-1.9,0.7-3.6,2.2-5C301.2,59.8,302.9,59.1,304.8,59.3z"
		/>
</g>
</svg>
