<?xml version="1.0" encoding="utf-8"?>
<!-- Generator: Adobe Illustrator 24.1.2, SVG Export Plug-In . SVG Version: 6.00 Build 0)  -->
<svg version="1.1" id="Layer_1" xmlns="http://www.w3.org/2000/svg" xmlns:xlink="http://www.w3.org/1999/xlink" x="0px" y="0px"
	 viewBox="0 0 355.4 245.1" style="enable-background:new 0 0 355.4 245.1;" xml:space="preserve">
<g>
	<g>
		<path d="M24.8,226l42.4-57.6c7.6-10.3,21.5-14,33.2-8.6l0,0c15.6,7.2,20.8,27,10.5,40.8l-10.5,14.2c-5.1,7-13.3,11.1-21.9,11.1
			L24.8,226L24.8,226z"/>
		<path d="M138.4,174.4L101,123.8L25.3,19.1h51.6c9.6,0,18.5,5,23.3,13.3l31.2,52.5c-4.8,11.8-7.1,24.3-7.1,37.6
			c0,14.2,2.7,27.5,8.2,40.1C134.3,166.7,136.3,170.6,138.4,174.4z"/>
	</g>
	<path d="M330.6,122.5c0,14.2-2.7,27.5-8.2,40.1c-4.9,11.3-11.4,21.4-19.6,30.1l-37.4-37.4c2.3-3.7,4.2-7.5,5.8-11.7
		c2.6-6.9,3.8-14.3,3.8-22.2c0-7.5-1.3-14.6-3.8-21.5s-5.9-12.7-10.4-17.7c-4.4-4.9-9.4-8.9-15.2-11.8c-5.8-2.9-11.9-4.4-18.6-4.4
		c-6.7,0-12.9,1.5-18.8,4.4c-1.6,0.7-3,1.6-4.5,2.6c-4,2.6-7.7,5.7-11,9.3c-4.4,4.9-7.9,10.8-10.4,17.7c-2.6,6.9-3.8,14-3.8,21.5
		c0,8.1,1.3,15.5,3.8,22.2c2.6,6.8,6,12.8,10.4,18c2.7,3.2,5.7,5.9,9,8.3c2,1.5,4.2,2.7,6.4,3.9c5.9,2.9,12.2,4.4,18.8,4.4
		c6.7,0,12.8-1.5,18.6-4.4c1.3-0.6,2.6-1.4,3.8-2.2l36.1,36.1c-5.6,3.8-11.6,7.2-18,10c-8,3.5-16.2,5.9-24.9,7.1
		c-4.8,0.7-9.8,1.1-14.8,1.1c-0.3,0-0.5,0-0.6,0s-0.5,0-0.6,0c-14.2-0.1-27.4-2.8-39.7-8.2c-12.5-5.5-23.4-12.9-32.8-22.2
		c-0.9-0.9-1.8-1.8-2.7-2.7c-5.2-5.6-9.7-11.7-13.6-18.4c-2.2-3.8-4.1-7.7-5.9-11.7c-5.5-12.5-8.2-25.9-8.2-40.1
		c0-13.3,2.4-25.8,7.1-37.6c0.4-0.8,0.7-1.6,1.1-2.5c5.5-12.5,12.8-23.5,22.2-32.8c9.3-9.3,20.2-16.7,32.8-22.2s26-8.2,40.4-8.2
		c1.2,0,2.3,0,3.5,0.1c3.9,0.1,7.8,0.5,11.5,1c8.9,1.3,17.3,3.7,25.3,7.1c12.5,5.5,23.4,12.9,32.8,22.2c9.3,9.3,16.7,20.3,22.2,32.8
		C327.8,95.1,330.6,108.4,330.6,122.5z"/>
</g>
</svg>
